<mxfile host="app.diagrams.net" agent="Mozilla/5.0 (Macintosh; Intel Mac OS X 10_15_7) AppleWebKit/605.1.15 (KHTML, like Gecko) Version/18.1 Safari/605.1.15" version="24.7.17">
  <diagram id="C5RBs43oDa-KdzZeNtuy" name="Page-1">
    <mxGraphModel dx="830" dy="475" grid="1" gridSize="10" guides="1" tooltips="1" connect="1" arrows="1" fold="1" page="1" pageScale="1" pageWidth="583" pageHeight="413" math="0" shadow="0">
      <root>
        <mxCell id="WIyWlLk6GJQsqaUBKTNV-0" />
        <mxCell id="WIyWlLk6GJQsqaUBKTNV-1" parent="WIyWlLk6GJQsqaUBKTNV-0" />
        <mxCell id="WIyWlLk6GJQsqaUBKTNV-2" value="" style="rounded=0;html=1;jettySize=auto;orthogonalLoop=1;fontSize=11;endArrow=block;endFill=0;endSize=8;strokeWidth=1;shadow=0;labelBackgroundColor=none;edgeStyle=orthogonalEdgeStyle;entryX=0.5;entryY=0;entryDx=0;entryDy=0;" parent="WIyWlLk6GJQsqaUBKTNV-1" source="WIyWlLk6GJQsqaUBKTNV-3" target="WIyWlLk6GJQsqaUBKTNV-7" edge="1">
          <mxGeometry relative="1" as="geometry">
            <mxPoint x="165" y="140" as="targetPoint" />
          </mxGeometry>
        </mxCell>
        <mxCell id="Ve1Vkk34Bk3RIba6Zb0x-0" value="HTTP Get Request" style="edgeLabel;html=1;align=center;verticalAlign=middle;resizable=0;points=[];fontFamily=STIX;" parent="WIyWlLk6GJQsqaUBKTNV-2" vertex="1" connectable="0">
          <mxGeometry x="-0.196" y="-1" relative="1" as="geometry">
            <mxPoint as="offset" />
          </mxGeometry>
        </mxCell>
        <mxCell id="WIyWlLk6GJQsqaUBKTNV-3" value="kmoni.bosai.go.jp" style="rounded=1;whiteSpace=wrap;html=1;fontSize=12;glass=0;strokeWidth=1;shadow=0;fontFamily=STIX;" parent="WIyWlLk6GJQsqaUBKTNV-1" vertex="1">
          <mxGeometry x="105" y="40" width="120" height="40" as="geometry" />
        </mxCell>
        <mxCell id="Ve1Vkk34Bk3RIba6Zb0x-3" style="edgeStyle=orthogonalEdgeStyle;rounded=0;orthogonalLoop=1;jettySize=auto;html=1;exitX=0.5;exitY=1;exitDx=0;exitDy=0;endArrow=block;endFill=0;endSize=8;" parent="WIyWlLk6GJQsqaUBKTNV-1" source="WIyWlLk6GJQsqaUBKTNV-7" target="WIyWlLk6GJQsqaUBKTNV-12" edge="1">
          <mxGeometry relative="1" as="geometry" />
        </mxCell>
        <mxCell id="Ve1Vkk34Bk3RIba6Zb0x-4" value="Mapping of Pixel Coordinates&lt;div&gt;to Observation Points&lt;/div&gt;" style="edgeLabel;html=1;align=center;verticalAlign=middle;resizable=0;points=[];fontFamily=STIX;" parent="Ve1Vkk34Bk3RIba6Zb0x-3" vertex="1" connectable="0">
          <mxGeometry x="-0.219" y="-2" relative="1" as="geometry">
            <mxPoint as="offset" />
          </mxGeometry>
        </mxCell>
        <mxCell id="WIyWlLk6GJQsqaUBKTNV-7" value="GIF Format Image" style="rounded=1;whiteSpace=wrap;html=1;fontSize=12;glass=0;strokeWidth=1;shadow=0;fontFamily=STIX;" parent="WIyWlLk6GJQsqaUBKTNV-1" vertex="1">
          <mxGeometry x="105" y="130" width="120" height="40" as="geometry" />
        </mxCell>
        <mxCell id="Ve1Vkk34Bk3RIba6Zb0x-8" style="edgeStyle=orthogonalEdgeStyle;rounded=0;orthogonalLoop=1;jettySize=auto;html=1;entryX=1;entryY=0.5;entryDx=0;entryDy=0;exitX=0.5;exitY=1;exitDx=0;exitDy=0;endArrow=block;endFill=0;" parent="WIyWlLk6GJQsqaUBKTNV-1" source="WIyWlLk6GJQsqaUBKTNV-11" target="WIyWlLk6GJQsqaUBKTNV-12" edge="1">
          <mxGeometry relative="1" as="geometry">
            <mxPoint x="55" y="340" as="sourcePoint" />
            <Array as="points">
              <mxPoint x="165" y="380" />
              <mxPoint x="325" y="380" />
              <mxPoint x="325" y="240" />
            </Array>
          </mxGeometry>
        </mxCell>
        <mxCell id="Ve1Vkk34Bk3RIba6Zb0x-9" value="Mapping back to Colours&lt;div&gt;to display on map&lt;/div&gt;" style="edgeLabel;html=1;align=center;verticalAlign=middle;resizable=0;points=[];fontFamily=STIX;" parent="Ve1Vkk34Bk3RIba6Zb0x-8" vertex="1" connectable="0">
          <mxGeometry x="-0.4453" y="2" relative="1" as="geometry">
            <mxPoint x="75" y="-68" as="offset" />
          </mxGeometry>
        </mxCell>
        <mxCell id="WIyWlLk6GJQsqaUBKTNV-11" value="(ObservationPoint, ConvertedValues)" style="rounded=1;whiteSpace=wrap;html=1;fontSize=12;glass=0;strokeWidth=1;shadow=0;fontFamily=STIX;" parent="WIyWlLk6GJQsqaUBKTNV-1" vertex="1">
          <mxGeometry x="70" y="310" width="190" height="40" as="geometry" />
        </mxCell>
        <mxCell id="Ve1Vkk34Bk3RIba6Zb0x-5" style="edgeStyle=orthogonalEdgeStyle;rounded=0;orthogonalLoop=1;jettySize=auto;html=1;exitX=0.5;exitY=1;exitDx=0;exitDy=0;endSize=8;endArrow=block;endFill=0;" parent="WIyWlLk6GJQsqaUBKTNV-1" source="WIyWlLk6GJQsqaUBKTNV-12" target="WIyWlLk6GJQsqaUBKTNV-11" edge="1">
          <mxGeometry relative="1" as="geometry" />
        </mxCell>
        <mxCell id="Ve1Vkk34Bk3RIba6Zb0x-6" value="Mapping of Colours&lt;div&gt;to Intensity, PGA, PGV, PGD&lt;/div&gt;" style="edgeLabel;html=1;align=center;verticalAlign=middle;resizable=0;points=[];fontFamily=STIX;" parent="Ve1Vkk34Bk3RIba6Zb0x-5" vertex="1" connectable="0">
          <mxGeometry x="-0.0286" y="-2" relative="1" as="geometry">
            <mxPoint x="2" y="-4" as="offset" />
          </mxGeometry>
        </mxCell>
        <mxCell id="WIyWlLk6GJQsqaUBKTNV-12" value="(ObservationPoint, Colour)" style="rounded=1;whiteSpace=wrap;html=1;fontSize=12;glass=0;strokeWidth=1;shadow=0;fontFamily=STIX;" parent="WIyWlLk6GJQsqaUBKTNV-1" vertex="1">
          <mxGeometry x="70" y="220" width="190" height="40" as="geometry" />
        </mxCell>
        <mxCell id="Ve1Vkk34Bk3RIba6Zb0x-10" value="ingen084/KyoshinSindoPlaceEditor" style="rounded=0;whiteSpace=wrap;html=1;fontSize=12;glass=0;strokeWidth=1;shadow=0;fontFamily=STIX;" parent="WIyWlLk6GJQsqaUBKTNV-1" vertex="1">
          <mxGeometry x="335" y="140" width="200" height="40" as="geometry" />
        </mxCell>
        <mxCell id="Ve1Vkk34Bk3RIba6Zb0x-11" value="ShindoObsPoints.mpk.lz4" style="rounded=0;whiteSpace=wrap;html=1;fontSize=12;glass=0;strokeWidth=1;shadow=0;fontFamily=STIX;" parent="WIyWlLk6GJQsqaUBKTNV-1" vertex="1">
          <mxGeometry x="335" y="200" width="200" height="40" as="geometry" />
        </mxCell>
        <mxCell id="Ve1Vkk34Bk3RIba6Zb0x-12" value="" style="strokeWidth=1;html=1;shape=mxgraph.flowchart.annotation_2;align=left;labelPosition=right;pointerEvents=1;" parent="WIyWlLk6GJQsqaUBKTNV-1" vertex="1">
          <mxGeometry x="245" y="160" width="90" height="60" as="geometry" />
        </mxCell>
      </root>
    </mxGraphModel>
  </diagram>
</mxfile>
